<svg width="45" height="45" viewBox="0 0 45 45" fill="none" xmlns="http://www.w3.org/2000/svg">
<g filter="url(#filter0_d_1000_2406)">
<circle cx="35.5" cy="9.5" r="7.5" fill="#FF004D"/>
<path fill-rule="evenodd" clip-rule="evenodd" d="M35.5012 5.69922C35.943 5.69922 36.3012 5.96785 36.3012 6.29922V9.61347C36.3012 9.94484 35.943 10.2135 35.5012 10.2135C35.0593 10.2135 34.7012 9.94484 34.7012 9.61347V6.29922C34.7012 5.96785 35.0593 5.69922 35.5012 5.69922Z" fill="white"/>
<path fill-rule="evenodd" clip-rule="evenodd" d="M34.5 12.5C34.5 11.9477 34.9449 11.5 35.4938 11.5H35.5062C36.0551 11.5 36.5 11.9477 36.5 12.5C36.5 13.0523 36.0551 13.5 35.5062 13.5H35.4938C34.9449 13.5 34.5 13.0523 34.5 12.5Z" fill="white"/>
</g>
<defs>
<filter id="filter0_d_1000_2406" x="-2" y="0" width="49" height="49" filterUnits="userSpaceOnUse" color-interpolation-filters="sRGB">
<feFlood flood-opacity="0" result="BackgroundImageFix"/>
<feColorMatrix in="SourceAlpha" type="matrix" values="0 0 0 0 0 0 0 0 0 0 0 0 0 0 0 0 0 0 127 0" result="hardAlpha"/>
<feOffset dy="2"/>
<feGaussianBlur stdDeviation="1"/>
<feComposite in2="hardAlpha" operator="out"/>
<feColorMatrix type="matrix" values="0 0 0 0 0 0 0 0 0 0 0 0 0 0 0 0 0 0 0.25 0"/>
<feBlend mode="normal" in2="BackgroundImageFix" result="effect1_dropShadow_1000_2406"/>
<feBlend mode="normal" in="SourceGraphic" in2="effect1_dropShadow_1000_2406" result="shape"/>
</filter>
</defs>
</svg>
