<svg width="30" height="30" viewBox="0 0 30 30" fill="none" xmlns="http://www.w3.org/2000/svg">
<path fill-rule="evenodd" clip-rule="evenodd" d="M26.4765 20.6517L22.0082 17.1929C21.7924 17.0264 21.5233 16.9442 21.2512 16.9617C20.9792 16.9793 20.7229 17.0954 20.5303 17.2883L18.1586 19.6612C17.9819 19.8397 17.7502 19.9533 17.5009 19.9836C17.2517 20.014 16.9995 19.9594 16.7851 19.8285C16.0215 19.3603 14.7436 18.4529 13.1444 16.8526C11.5453 15.2546 10.6379 13.9755 10.1696 13.213C10.0386 12.9989 9.984 12.7467 10.0146 12.4975C10.0452 12.2483 10.1592 12.0168 10.3381 11.8407L12.7098 9.46785C12.903 9.27536 13.0192 9.01893 13.0366 8.74677C13.054 8.47461 12.9713 8.20548 12.8042 7.99L9.34647 3.5205C8.56038 2.50644 7.07804 2.34586 6.11227 3.19371C4.83992 4.30996 3.31153 5.98209 2.86683 7.85861C2.06165 11.2388 3.33399 15.4803 8.92647 21.0728C14.519 26.6642 18.7605 27.9376 22.1396 27.1336C24.0161 26.6866 25.6893 25.1571 26.8056 23.8859C27.6523 22.9201 27.4917 21.4378 26.4765 20.6517" fill="black"/>
</svg>
