<svg width="30" height="30" viewBox="0 0 30 30" fill="none" xmlns="http://www.w3.org/2000/svg">
<circle cx="15" cy="15" r="14.5" fill="white" stroke="#E0E0E0"/>
<path fill-rule="evenodd" clip-rule="evenodd" d="M14.789 7.14428C15.0895 6.68094 14.9576 6.06168 14.4942 5.76113C14.0309 5.46058 13.4116 5.59256 13.1111 6.0559L11.4311 8.6459C11.2864 8.86892 11.2365 9.14035 11.2924 9.40024C11.3482 9.66012 11.5053 9.88707 11.7288 10.031L14.3388 11.711C14.8032 12.0099 15.4219 11.8757 15.7209 11.4113C16.0198 10.947 15.8857 10.3282 15.4213 10.0292L14.774 9.61261C14.9134 9.60437 15.0553 9.60009 15.2 9.60009C18.5151 9.60009 21.2 12.2859 21.2 15.6001C21.2 18.9143 18.5151 21.6001 15.2 21.6001C11.8848 21.6001 9.19995 18.9143 9.19995 15.6001C9.19995 14.3664 9.57464 13.217 10.2124 12.2632C10.5194 11.8041 10.3961 11.183 9.93705 10.876C9.47795 10.569 8.85691 10.6923 8.54991 11.1514C7.70022 12.4221 7.19995 13.9562 7.19995 15.6001C7.19995 20.0186 10.7801 23.6001 15.2 23.6001C19.6198 23.6001 23.2 20.0186 23.2 15.6001C23.2 11.1816 19.6198 7.60009 15.2 7.60009C14.9525 7.60009 14.7108 7.60993 14.4748 7.6286L14.789 7.14428Z" fill="#333333"/>
</svg>
