<svg width="34" height="34" viewBox="0 0 34 34" fill="none" xmlns="http://www.w3.org/2000/svg">
<path fill-rule="evenodd" clip-rule="evenodd" d="M22.075 2H8.2C6.43269 2 5 3.43269 5 5.2V28.8C5 30.5673 6.43269 32 8.2 32H25.8C27.5673 32 29 30.5673 29 28.8V8.40387L22.075 2Z" fill="white"/>
<path fill-rule="evenodd" clip-rule="evenodd" d="M8.2 3C6.98497 3 6 3.98497 6 5.2V28.8C6 30.015 6.98497 31 8.2 31H25.8C27.015 31 28 30.015 28 28.8V8.84117L21.6835 3H8.2ZM4 5.2C4 2.8804 5.8804 1 8.2 1H22.075C22.3267 1 22.5691 1.09492 22.7539 1.26581L29.6789 7.66968C29.8836 7.85896 30 8.12509 30 8.40387V28.8C30 31.1196 28.1196 33 25.8 33H8.2C5.8804 33 4 31.1196 4 28.8V5.2Z" fill="#E5E5E5"/>
<path d="M2 13C2 11.3431 3.34315 10 5 10H29C30.6569 10 32 11.3431 32 13V22C32 23.6569 30.6569 25 29 25H5C3.34315 25 2 23.6569 2 22V13Z" fill="#EF2D26"/>
<path d="M11.248 18.2119H9.34863V17.4453H11.248C11.6159 17.4453 11.9137 17.3867 12.1416 17.2695C12.3695 17.1523 12.5355 16.9896 12.6396 16.7812C12.7471 16.5729 12.8008 16.3353 12.8008 16.0684C12.8008 15.8242 12.7471 15.5947 12.6396 15.3799C12.5355 15.165 12.3695 14.9925 12.1416 14.8623C11.9137 14.7288 11.6159 14.6621 11.248 14.6621H9.56836V21H8.62598V13.8906H11.248C11.7852 13.8906 12.2393 13.9834 12.6104 14.1689C12.9814 14.3545 13.263 14.6117 13.4551 14.9404C13.6471 15.266 13.7432 15.6387 13.7432 16.0586C13.7432 16.5143 13.6471 16.9033 13.4551 17.2256C13.263 17.5479 12.9814 17.7936 12.6104 17.9629C12.2393 18.1289 11.7852 18.2119 11.248 18.2119Z" fill="white"/>
<path d="M16.8584 21H15.374L15.3838 20.2334H16.8584C17.3662 20.2334 17.7894 20.1276 18.1279 19.916C18.4665 19.7012 18.7204 19.4017 18.8896 19.0176C19.0622 18.6302 19.1484 18.1777 19.1484 17.6602V17.2256C19.1484 16.8187 19.0996 16.4574 19.002 16.1416C18.9043 15.8226 18.7611 15.554 18.5723 15.3359C18.3835 15.1146 18.1523 14.9469 17.8789 14.833C17.6087 14.7191 17.2979 14.6621 16.9463 14.6621H15.3447V13.8906H16.9463C17.4118 13.8906 17.8366 13.9688 18.2207 14.125C18.6048 14.278 18.9352 14.501 19.2119 14.7939C19.4919 15.0837 19.7067 15.4352 19.8564 15.8486C20.0062 16.2588 20.0811 16.721 20.0811 17.2354V17.6602C20.0811 18.1745 20.0062 18.6383 19.8564 19.0518C19.7067 19.4619 19.4902 19.8118 19.207 20.1016C18.9271 20.3913 18.5885 20.6143 18.1914 20.7705C17.7975 20.9235 17.3532 21 16.8584 21ZM15.877 13.8906V21H14.9346V13.8906H15.877Z" fill="white"/>
<path d="M22.4395 13.8906V21H21.4971V13.8906H22.4395ZM25.418 17.0889V17.8604H22.2344V17.0889H25.418ZM25.9014 13.8906V14.6621H22.2344V13.8906H25.9014Z" fill="white"/>
</svg>
