<svg width="30" height="30" viewBox="0 0 30 30" fill="none" xmlns="http://www.w3.org/2000/svg">
<path fill-rule="evenodd" clip-rule="evenodd" d="M15 30C23.2843 30 30 23.2843 30 15C30 6.71573 23.2843 0 15 0C6.71573 0 0 6.71573 0 15C0 23.2843 6.71573 30 15 30ZM9.11612 9.11612C9.60427 8.62796 10.3957 8.62796 10.8839 9.11612L15 13.2322L19.1161 9.11612C19.6043 8.62796 20.3957 8.62796 20.8839 9.11612C21.372 9.60427 21.372 10.3957 20.8839 10.8839L16.7678 15L20.8839 19.1161C21.372 19.6043 21.372 20.3957 20.8839 20.8839C20.3957 21.372 19.6043 21.372 19.1161 20.8839L15 16.7678L10.8839 20.8839C10.3957 21.372 9.60427 21.372 9.11612 20.8839C8.62796 20.3957 8.62796 19.6043 9.11612 19.1161L13.2322 15L9.11612 10.8839C8.62796 10.3957 8.62796 9.60427 9.11612 9.11612Z" fill="#999999"/>
</svg>
