<svg width="34" height="34" viewBox="0 0 34 34" fill="none" xmlns="http://www.w3.org/2000/svg">
<g opacity="0.3">
<path fill-rule="evenodd" clip-rule="evenodd" d="M16.9994 0.5C15.3342 0.5 13.7372 1.16895 12.5597 2.3597C11.3822 3.55044 10.7207 5.16544 10.7207 6.84941V15.6017C10.7207 17.2857 11.3822 18.9007 12.5597 20.0914C13.7372 21.2822 15.3342 21.9511 16.9994 21.9511C18.6646 21.9511 20.2616 21.2822 21.4391 20.0914C22.6166 18.9007 23.2781 17.2857 23.2781 15.6017V6.84941C23.2781 5.16544 22.6166 3.55044 21.4391 2.3597C20.2616 1.16895 18.6646 0.5 16.9994 0.5Z" fill="black"/>
<path fill-rule="evenodd" clip-rule="evenodd" d="M29 15.6018C29 15.2276 28.853 14.8687 28.5913 14.6041C28.3297 14.3395 27.9748 14.1908 27.6047 14.1908C27.2347 14.1908 26.8798 14.3395 26.6181 14.6041C26.3565 14.8687 26.2095 15.2276 26.2095 15.6018C26.2069 18.0712 25.2357 20.4387 23.509 22.1848C21.7823 23.9309 19.4412 24.913 16.9993 24.9157C14.5579 24.9127 12.2173 23.9306 10.491 22.1848C8.76464 20.439 7.79349 18.0721 7.79054 15.6032C7.79054 15.229 7.64353 14.8701 7.38187 14.6055C7.12021 14.3409 6.76532 14.1922 6.39527 14.1922C6.02522 14.1922 5.67033 14.3409 5.40866 14.6055C5.147 14.8701 5 15.229 5 15.6032C5 21.8157 9.64345 26.9475 15.604 27.6487V32.0891C15.604 32.4633 15.751 32.8222 16.0127 33.0868C16.2744 33.3514 16.6293 33.5001 16.9993 33.5001C17.3694 33.5001 17.7242 33.3514 17.9859 33.0868C18.2476 32.8222 18.3946 32.4633 18.3946 32.0891V27.6487C24.3566 26.9461 29 21.8157 29 15.6018Z" fill="black"/>
</g>
</svg>
