<svg width="34" height="34" viewBox="0 0 34 34" fill="none" xmlns="http://www.w3.org/2000/svg">
<path fill-rule="evenodd" clip-rule="evenodd" d="M26.8841 7.11612C26.396 6.62796 25.6045 6.62796 25.1164 7.11612L15.2325 17L25.1164 26.8839C25.6045 27.372 26.396 27.372 26.8841 26.8839C27.3723 26.3957 27.3723 25.6043 26.8841 25.1161L18.768 17L26.8841 8.88388C27.3723 8.39573 27.3723 7.60427 26.8841 7.11612Z" fill="white"/>
<path fill-rule="evenodd" clip-rule="evenodd" d="M7.11636 7.11612C7.60451 6.62796 8.39597 6.62796 8.88413 7.11612L18.768 17L8.88413 26.8839C8.39597 27.372 7.60452 27.372 7.11636 26.8839C6.62821 26.3957 6.6282 25.6043 7.11636 25.1161L15.2325 17L7.11636 8.88388C6.62821 8.39573 6.6282 7.60427 7.11636 7.11612Z" fill="white"/>
</svg>
