<svg width="30" height="30" viewBox="0 0 30 30" fill="none" xmlns="http://www.w3.org/2000/svg">
<path fill-rule="evenodd" clip-rule="evenodd" d="M13.3999 21.7C18.3705 21.7 22.3999 17.6705 22.3999 12.7C22.3999 7.72939 18.3705 3.69995 13.3999 3.69995C8.42934 3.69995 4.3999 7.72939 4.3999 12.7C4.3999 17.6705 8.42934 21.7 13.3999 21.7ZM13.3999 24.2C19.7512 24.2 24.8999 19.0512 24.8999 12.7C24.8999 6.34868 19.7512 1.19995 13.3999 1.19995C7.04863 1.19995 1.8999 6.34868 1.8999 12.7C1.8999 19.0512 7.04863 24.2 13.3999 24.2Z" fill="black"/>
<path fill-rule="evenodd" clip-rule="evenodd" d="M19.4309 19.9432C19.9327 19.4691 20.7238 19.4916 21.1979 19.9934L28.2759 27.4851C28.75 27.9869 28.7275 28.778 28.2257 29.2521C27.7239 29.7262 26.9327 29.7038 26.4586 29.202L19.3807 21.7102C18.9066 21.2084 18.9291 20.4173 19.4309 19.9432Z" fill="black"/>
</svg>
