<svg width="30" height="30" viewBox="0 0 30 30" fill="none" xmlns="http://www.w3.org/2000/svg">
<path fill-rule="evenodd" clip-rule="evenodd" d="M15.0001 20.2801C14.3098 20.2801 13.7501 19.6988 13.7501 18.9818V2.95859C13.7501 2.24159 14.3098 1.66034 15.0001 1.66034C15.6904 1.66034 16.25 2.24159 16.25 2.95859V18.9818C16.25 19.6988 15.6904 20.2801 15.0001 20.2801Z" fill="black"/>
<path fill-rule="evenodd" clip-rule="evenodd" d="M15.884 19.8998C15.3958 20.4068 14.6044 20.4068 14.1163 19.8998L7.36681 12.8896C6.87867 12.3826 6.87867 11.5606 7.36681 11.0536C7.85495 10.5466 8.64638 10.5466 9.13453 11.0536L15.884 18.0638C16.3721 18.5708 16.3721 19.3928 15.884 19.8998Z" fill="black"/>
<path fill-rule="evenodd" clip-rule="evenodd" d="M14.1161 19.8999C13.628 19.3929 13.628 18.5709 14.1161 18.0639L20.8656 11.0537C21.3537 10.5467 22.1452 10.5467 22.6333 11.0537C23.1214 11.5607 23.1214 12.3827 22.6333 12.8897L15.8839 19.8999C15.3957 20.4069 14.6043 20.4069 14.1161 19.8999Z" fill="black"/>
<path fill-rule="evenodd" clip-rule="evenodd" d="M2.72729 16.9596C3.41765 16.9596 3.97729 17.5408 3.97729 18.2578V23.6395C3.97729 24.6432 4.7608 25.4569 5.72729 25.4569H24.2728C25.2392 25.4569 26.0227 24.6432 26.0227 23.6395V18.2578C26.0227 17.5408 26.5824 16.9596 27.2727 16.9596C27.9631 16.9596 28.5227 17.5408 28.5227 18.2578V23.6395C28.5227 26.0772 26.62 28.0533 24.2728 28.0533H5.72729C3.38009 28.0533 1.47729 26.0772 1.47729 23.6395V18.2578C1.47729 17.5408 2.03694 16.9596 2.72729 16.9596Z" fill="black"/>
</svg>
