<svg width="22" height="22" viewBox="0 0 22 22" fill="none" xmlns="http://www.w3.org/2000/svg">
<path fill-rule="evenodd" clip-rule="evenodd" d="M6.6 2.79999C4.33563 2.79999 2.5 4.63562 2.5 6.89999V14.9C2.5 17.1644 4.33563 19 6.6 19H15.6C17.8644 19 19.7 17.1644 19.7 14.9V6.89999C19.7 4.63562 17.8644 2.79999 15.6 2.79999H6.6ZM4.2 6.89999C4.2 5.5745 5.27452 4.49999 6.6 4.49999H15.6C16.9255 4.49999 18 5.5745 18 6.89999V14.9C18 16.2255 16.9255 17.3 15.6 17.3H6.6C5.27452 17.3 4.2 16.2255 4.2 14.9V6.89999Z" fill="black"/>
<path fill-rule="evenodd" clip-rule="evenodd" d="M12.6 7.29987C11.4402 7.29987 10.5 8.24007 10.5 9.39987V12.3999C10.5 13.5597 11.4402 14.4999 12.6 14.4999H19.7V7.29987H12.6ZM12.2 9.39987C12.2 9.17895 12.3791 8.99987 12.6 8.99987H18V12.7999H12.6C12.3791 12.7999 12.2 12.6208 12.2 12.3999V9.39987Z" fill="black"/>
<path fill-rule="evenodd" clip-rule="evenodd" d="M15.95 8.30157H14.25V13.5016H15.95V8.30157Z" fill="black"/>
</svg>
