<svg width="30" height="30" viewBox="0 0 30 30" fill="none" xmlns="http://www.w3.org/2000/svg">
<path d="M14.2929 10.4071L13.9415 10.7584L14.2929 10.4071C14.1054 10.2195 14 9.96517 14 9.69995C14 9.43474 14.1054 9.18038 14.2929 8.99285L14.2929 8.99284C14.4804 8.80531 14.7348 8.69995 15 8.69995C15.2652 8.69995 15.5196 8.80531 15.7071 8.99284L16.0607 8.63929L15.7071 8.99285C15.8946 9.18038 16 9.43474 16 9.69995C16 9.96517 15.8946 10.2195 15.7071 10.4071L16.0607 10.7606L15.7071 10.4071C15.5196 10.5946 15.2652 10.7 15 10.7C14.7348 10.7 14.4804 10.5946 14.2929 10.4071ZM15.75 20.4937C15.75 20.6926 15.671 20.8834 15.5303 21.024C15.3897 21.1647 15.1989 21.2437 15 21.2437C14.8011 21.2437 14.6103 21.1647 14.4697 21.024C14.329 20.8834 14.25 20.6926 14.25 20.4937V14.2437C14.25 14.0448 14.329 13.854 14.4697 13.7134C14.6103 13.5727 14.8011 13.4937 15 13.4937C15.1989 13.4937 15.3897 13.5727 15.5303 13.7134C15.671 13.854 15.75 14.0448 15.75 14.2437V20.4937Z" fill="#666666" stroke="#666666"/>
<circle cx="15" cy="15" r="13" stroke="#666666" stroke-width="2"/>
</svg>
