<svg width="22" height="22" viewBox="0 0 22 22" fill="none" xmlns="http://www.w3.org/2000/svg">
<path fill-rule="evenodd" clip-rule="evenodd" d="M19.0776 8.02706L14.723 7.36584C14.3723 7.31249 14.0693 7.08246 13.9128 6.75098L11.9652 2.62711C11.5702 1.79096 10.4294 1.79096 10.0344 2.62711L8.08764 6.75098C7.93113 7.08246 7.62731 7.31249 7.27663 7.36584L2.92283 8.02706C2.03985 8.16087 1.68749 9.29527 2.32609 9.94511L5.4772 13.155C5.60202 13.2823 5.69542 13.4394 5.74935 13.6128C5.80329 13.7862 5.81616 13.9706 5.78687 14.1503L5.04282 18.6826C4.89217 19.6019 5.81449 20.3016 6.60456 19.8686L10.4997 17.7284C10.654 17.6435 10.8258 17.5992 11.0002 17.5992C11.1746 17.5992 11.3464 17.6435 11.5007 17.7284L15.3959 19.8686C16.1851 20.3016 17.1074 19.6019 16.9568 18.6826L16.2127 14.1503C16.1834 13.9706 16.1962 13.7861 16.2501 13.6128C16.3041 13.4394 16.3975 13.2823 16.5224 13.155L19.6735 9.94511C20.3129 9.29527 19.9597 8.16087 19.0776 8.02706ZM15.194 17.863L14.6309 14.4327C14.5577 13.9852 14.5897 13.5259 14.724 13.0942C14.8583 12.6625 15.0909 12.2714 15.4019 11.9545L17.7863 9.52561L14.4922 9.02543C13.6198 8.8927 12.8643 8.32022 12.4737 7.49317C12.4737 7.49312 12.4738 7.49322 12.4737 7.49317L10.9999 4.37241L9.52681 7.49291C9.13552 8.32166 8.37857 8.89289 7.50783 9.02536L4.2134 9.52569L6.59817 11.9549C6.90883 12.2719 7.14125 12.6628 7.27549 13.0943C7.40972 13.5257 7.44176 13.9848 7.36884 14.432L7.36853 14.4339L6.8055 17.8635L9.75233 16.2444C10.1371 16.0328 10.5654 15.9222 11.0002 15.9222C11.435 15.9222 11.8633 16.0328 12.2481 16.2444L15.194 17.863Z" fill="black"/>
<path d="M12.4737 7.49317C12.8643 8.32022 13.6198 8.8927 14.4922 9.02543L17.7863 9.52561L15.4019 11.9545C15.0909 12.2714 14.8583 12.6625 14.724 13.0942C14.5897 13.5259 14.5577 13.9852 14.6309 14.4327L15.194 17.863L12.2481 16.2444C11.8633 16.0328 11.435 15.9222 11.0002 15.9222C10.5654 15.9222 10.1371 16.0328 9.75233 16.2444L6.8055 17.8635L7.36853 14.4339L7.36884 14.432C7.44176 13.9848 7.40972 13.5257 7.27549 13.0943C7.14126 12.6628 6.90883 12.2719 6.59817 11.9549L4.2134 9.52569L7.50783 9.02536C8.37857 8.89289 9.13552 8.32166 9.52681 7.49291L10.9999 4.37241L12.4737 7.49317ZM12.4737 7.49317C12.4738 7.49322 12.4737 7.49312 12.4737 7.49317ZM14.723 7.36584L19.0776 8.02706C19.9597 8.16087 20.3129 9.29527 19.6735 9.94511L16.5224 13.155C16.3975 13.2823 16.3041 13.4394 16.2501 13.6128C16.1962 13.7861 16.1834 13.9706 16.2127 14.1503L16.9568 18.6826C17.1074 19.6019 16.1851 20.3016 15.3959 19.8686L11.5007 17.7284C11.3464 17.6435 11.1746 17.5992 11.0002 17.5992C10.8258 17.5992 10.654 17.6435 10.4997 17.7284L6.60456 19.8686C5.81449 20.3016 4.89217 19.6019 5.04282 18.6826L5.78687 14.1503C5.81616 13.9706 5.80329 13.7862 5.74935 13.6128C5.69542 13.4394 5.60202 13.2823 5.4772 13.155L2.32609 9.94511C1.68749 9.29527 2.03985 8.16087 2.92283 8.02706L7.27663 7.36584C7.62731 7.31249 7.93113 7.08246 8.08764 6.75098L10.0344 2.62711C10.4294 1.79096 11.5702 1.79096 11.9652 2.62711L13.9128 6.75098C14.0693 7.08246 14.3723 7.31249 14.723 7.36584Z" stroke="black" stroke-width="0.3" stroke-linejoin="round"/>
</svg>
