<svg width="34" height="34" viewBox="0 0 34 34" fill="none" xmlns="http://www.w3.org/2000/svg">
<path fill-rule="evenodd" clip-rule="evenodd" d="M31.7082 15.6548L29.1526 12.167C29.0128 11.9762 28.83 11.821 28.619 11.714C28.408 11.607 28.1747 11.5513 27.9382 11.5513C27.7016 11.5513 27.4683 11.607 27.2573 11.714C27.0463 11.821 26.8635 11.9762 26.7237 12.167L24.1681 15.6548C23.4404 16.6497 24.1505 18.0498 25.3826 18.0498H26.4866C26.3212 19.5242 25.8114 20.939 24.9986 22.1801C24.1857 23.4212 23.0924 24.4539 21.807 25.1947C18.9202 26.8683 15.2204 26.8683 12.331 25.1947C12.0145 25.0152 11.6399 24.968 11.2887 25.0634C10.9375 25.1587 10.6382 25.3889 10.4559 25.7039C10.2736 26.0188 10.2231 26.393 10.3154 26.745C10.4076 27.097 10.6352 27.3984 10.9485 27.5834C12.809 28.6612 14.9207 29.2298 17.0709 29.232C19.2201 29.2296 21.3308 28.6615 23.1908 27.5847C25.0492 26.5083 26.5933 24.9642 27.6697 23.1058C28.5591 21.5561 29.0978 19.8303 29.248 18.0498H30.4938C30.7721 18.0499 31.045 17.9729 31.2822 17.8273C31.5194 17.6817 31.7116 17.4731 31.8374 17.2249C31.9632 16.9766 32.0177 16.6983 31.9949 16.4209C31.9721 16.1436 31.8729 15.8779 31.7082 15.6535M8.89597 15.9208H7.65141C7.79807 14.6258 8.20884 13.3747 8.85833 12.2448C9.69362 10.8051 10.8908 9.60886 12.331 8.7746C15.2191 7.10349 18.9189 7.10349 21.8082 8.7746C22.1252 8.95794 22.5019 9.00787 22.8557 8.91341C23.2094 8.81894 23.5112 8.58782 23.6945 8.27089C23.8778 7.95395 23.9278 7.57717 23.8333 7.22342C23.7388 6.86968 23.5077 6.56795 23.1908 6.38461C19.4621 4.22922 14.6759 4.22922 10.9485 6.38461C9.0904 7.46134 7.54632 9.00542 6.46958 10.8635C5.58148 12.4137 5.04283 14.1393 4.89131 15.9195H3.50624C3.22791 15.9194 2.955 15.9964 2.71781 16.142C2.48062 16.2876 2.28844 16.4962 2.16262 16.7444C2.0368 16.9927 1.98226 17.271 2.00506 17.5484C2.02787 17.8258 2.12712 18.0914 2.29179 18.3158L4.98666 21.9942C5.12647 22.1851 5.30929 22.3403 5.52029 22.4472C5.73129 22.5542 5.96453 22.61 6.2011 22.61C6.43767 22.61 6.67091 22.5542 6.88191 22.4472C7.09291 22.3403 7.27573 22.1851 7.41555 21.9942L10.1104 18.3158C10.2751 18.0914 10.3743 17.8258 10.3971 17.5484C10.4199 17.271 10.3654 16.9927 10.2396 16.7444C10.1138 16.4962 9.92159 16.2876 9.6844 16.142C9.44721 15.9964 9.17429 15.9194 8.89597 15.9195" fill="black"/>
</svg>
