<svg width="30" height="30" viewBox="0 0 30 30" fill="none" xmlns="http://www.w3.org/2000/svg">
<path fill-rule="evenodd" clip-rule="evenodd" d="M5.11612 5.11612C5.60427 4.62796 6.39573 4.62796 6.88388 5.11612L24.8839 23.1161C25.372 23.6043 25.372 24.3957 24.8839 24.8839C24.3957 25.372 23.6043 25.372 23.1161 24.8839L5.11612 6.88388C4.62796 6.39573 4.62796 5.60427 5.11612 5.11612Z" fill="black"/>
<path fill-rule="evenodd" clip-rule="evenodd" d="M24.8839 5.11612C24.3957 4.62796 23.6043 4.62796 23.1161 5.11612L5.11612 23.1161C4.62796 23.6043 4.62796 24.3957 5.11612 24.8839C5.60427 25.372 6.39573 25.372 6.88388 24.8839L24.8839 6.88388C25.372 6.39573 25.372 5.60427 24.8839 5.11612Z" fill="black"/>
</svg>
