<svg width="22" height="22" viewBox="0 0 22 22" fill="none" xmlns="http://www.w3.org/2000/svg">
<path fill-rule="evenodd" clip-rule="evenodd" d="M11.3144 3.96688C7.18395 3.96688 3.83557 7.18307 3.83557 11.1504C3.83557 15.1178 7.18395 18.334 11.3144 18.334C14.8849 18.334 17.873 15.9298 18.6157 12.7141C18.7299 12.2198 19.2396 11.9081 19.7541 12.0177C20.2687 12.1273 20.5933 12.6169 20.4791 13.1111C19.5468 17.148 15.7988 20.1673 11.3144 20.1673C6.12981 20.1673 1.92688 16.1303 1.92688 11.1504C1.92688 6.17055 6.12981 2.13354 11.3144 2.13354C14.2853 2.13354 16.9342 3.46017 18.6528 5.52674C18.7353 5.62598 18.8157 5.72695 18.8939 5.82956C19.2052 6.23808 19.1128 6.81165 18.6875 7.11068C18.2622 7.4097 17.6651 7.32094 17.3537 6.91242C17.2914 6.8306 17.2273 6.75009 17.1615 6.67094C15.7895 5.02117 13.6804 3.96688 11.3144 3.96688Z" fill="black"/>
<path fill-rule="evenodd" clip-rule="evenodd" d="M13.2579 7.16764C13.2579 6.66138 13.6852 6.25098 14.2123 6.25098H18.8122C19.3393 6.25098 19.7665 6.66138 19.7665 7.16764C19.7665 7.6739 19.3393 8.08431 18.8122 8.08431H14.2123C13.6852 8.08431 13.2579 7.6739 13.2579 7.16764Z" fill="black"/>
<path fill-rule="evenodd" clip-rule="evenodd" d="M18.8124 1.83264C19.3394 1.83264 19.7667 2.24305 19.7667 2.74931L19.7667 7.16761C19.7667 7.67388 19.3394 8.08428 18.8124 8.08428C18.2853 8.08428 17.858 7.67388 17.858 7.16761L17.858 2.74931C17.858 2.24305 18.2853 1.83264 18.8124 1.83264Z" fill="black"/>
</svg>
