<svg width="22" height="22" viewBox="0 0 22 22" fill="none" xmlns="http://www.w3.org/2000/svg">
<path fill-rule="evenodd" clip-rule="evenodd" d="M10.3292 16.7968C13.907 16.7968 16.8074 13.8985 16.8074 10.3232C16.8074 6.74793 13.907 3.8496 10.3292 3.8496C6.75133 3.8496 3.85092 6.74793 3.85092 10.3232C3.85092 13.8985 6.75133 16.7968 10.3292 16.7968ZM10.3292 18.6464C14.9292 18.6464 18.6583 14.92 18.6583 10.3232C18.6583 5.72642 14.9292 2 10.3292 2C5.72909 2 2 5.72642 2 10.3232C2 14.92 5.72909 18.6464 10.3292 18.6464Z" fill="black"/>
<path d="M15.1674 15.1711C15.5288 14.81 16.089 14.7843 16.4187 15.1137L19.4031 18.0959C19.7327 18.4254 19.707 18.9852 19.3455 19.3463C18.9841 19.7075 18.4239 19.7332 18.0943 19.4038L15.1099 16.4215C14.7802 16.0921 14.806 15.5323 15.1674 15.1711Z" fill="black"/>
<path fill-rule="evenodd" clip-rule="evenodd" d="M6.62744 10.3248C6.62744 9.81407 7.04178 9.40002 7.5529 9.40002H13.1057C13.6168 9.40002 14.0311 9.81407 14.0311 10.3248C14.0311 10.8356 13.6168 11.2496 13.1057 11.2496H7.5529C7.04178 11.2496 6.62744 10.8356 6.62744 10.3248Z" fill="black"/>
<path fill-rule="evenodd" clip-rule="evenodd" d="M10.3424 6.59998C10.8535 6.59998 11.2678 7.01402 11.2678 7.52477L11.2678 13.0736C11.2678 13.5843 10.8535 13.9984 10.3424 13.9984C9.83124 13.9984 9.4169 13.5843 9.4169 13.0736L9.4169 7.52477C9.4169 7.01402 9.83124 6.59998 10.3424 6.59998Z" fill="black"/>
</svg>
