<svg width="30" height="30" viewBox="0 0 30 30" fill="none" xmlns="http://www.w3.org/2000/svg">
<path fill-rule="evenodd" clip-rule="evenodd" d="M24.6517 5.34533C23.4673 4.16364 21.8625 3.5 20.1895 3.5C18.5164 3.5 16.9116 4.16364 15.7272 5.34533L13.6002 7.4713C13.3992 7.68761 13.29 7.97344 13.2954 8.26867C13.3008 8.5639 13.4205 8.84553 13.6293 9.05432C13.8381 9.26312 14.1197 9.38281 14.4149 9.38823C14.7102 9.39365 14.996 9.28437 15.2123 9.08338L17.3393 6.95742C18.0958 6.20265 19.1208 5.77877 20.1895 5.77877C21.2581 5.77877 22.2831 6.20265 23.0396 6.95742C23.4152 7.33079 23.7129 7.77495 23.9157 8.26418C24.1184 8.75342 24.2221 9.27801 24.2207 9.80758C24.2221 10.3372 24.1185 10.8618 23.9157 11.351C23.713 11.8402 23.4152 12.2844 23.0396 12.6577L19.3088 16.3885C17.7869 17.9115 15.1315 17.9115 13.6085 16.3885C13.3564 16.1372 13.1387 15.8536 12.961 15.5452C12.8104 15.2831 12.5619 15.0915 12.27 15.0126C11.9782 14.9337 11.667 14.974 11.4049 15.1246C11.1427 15.2751 10.9511 15.5237 10.8723 15.8155C10.7934 16.1074 10.8336 16.4186 10.9842 16.6807C11.2608 17.1604 11.6007 17.6049 11.9964 18.0006C12.5812 18.5883 13.2766 19.0543 14.0425 19.3715C14.8084 19.6888 15.6296 19.851 16.4587 19.8489C17.2877 19.8511 18.109 19.6889 18.8749 19.3717C19.6408 19.0544 20.3362 18.5884 20.9209 18.0006L24.6517 14.2709C25.2396 13.6859 25.7057 12.9901 26.023 12.2238C26.3402 11.4575 26.5024 10.6359 26.5 9.80654C26.5022 8.9775 26.34 8.15625 26.0227 7.39031C25.7055 6.62437 25.2395 5.92895 24.6517 5.3443" fill="black"/>
<path fill-rule="evenodd" clip-rule="evenodd" d="M14.7877 20.9113L12.6607 23.0383C11.9039 23.7925 10.879 24.2161 9.81055 24.2161C8.74208 24.2161 7.71718 23.7925 6.9604 23.0383C6.58508 22.6647 6.28746 22.2205 6.08475 21.7313C5.88203 21.2422 5.77822 20.7177 5.77931 20.1881C5.77931 19.1117 6.19891 18.0995 6.9604 17.339L10.6912 13.6072C11.1294 13.1699 11.6623 12.8393 12.2488 12.6409C12.8352 12.4426 13.4594 12.3818 14.0731 12.4634C14.6868 12.5449 15.2734 12.7665 15.7877 13.1111C16.3021 13.4557 16.7302 13.914 17.039 14.4505C17.1136 14.5803 17.213 14.6941 17.3315 14.7855C17.4501 14.8769 17.5855 14.944 17.73 14.9831C17.8745 15.0222 18.0252 15.0324 18.1737 15.0132C18.3221 14.994 18.4654 14.9457 18.5952 14.8711C18.7249 14.7966 18.8388 14.6972 18.9302 14.5786C19.0216 14.4601 19.0887 14.3247 19.1278 14.1802C19.1668 14.0357 19.177 13.8849 19.1578 13.7365C19.1386 13.588 19.0903 13.4448 19.0158 13.315C18.5321 12.4754 17.8617 11.7584 17.0567 11.2193C16.2516 10.6801 15.3333 10.3334 14.3728 10.2058C13.4123 10.0782 12.4353 10.1732 11.5174 10.4835C10.5995 10.7937 9.76523 11.3109 9.07911 11.9951L5.34832 15.7259C4.76063 16.3106 4.29469 17.006 3.97743 17.772C3.66018 18.5379 3.49792 19.3591 3.50002 20.1881C3.50002 21.8738 4.15687 23.4589 5.34832 24.6504C5.93371 25.2369 6.62934 25.702 7.39515 26.0186C8.16096 26.3353 8.98185 26.4974 9.81055 26.4956C11.4268 26.4956 13.042 25.8802 14.2728 24.6514L16.3998 22.5244C16.6008 22.3081 16.71 22.0223 16.7046 21.727C16.6992 21.4318 16.5795 21.1502 16.3707 20.9414C16.1619 20.7326 15.8803 20.6129 15.5851 20.6075C15.2898 20.602 15.004 20.7113 14.7877 20.9123" fill="black"/>
</svg>
