<svg width="30" height="30" viewBox="0 0 30 30" fill="none" xmlns="http://www.w3.org/2000/svg">
<path d="M21.1364 10.2272C23.0192 10.2272 24.5455 8.70094 24.5455 6.81815C24.5455 4.93536 23.0192 3.40906 21.1364 3.40906C19.2536 3.40906 17.7273 4.93536 17.7273 6.81815C17.7273 8.70094 19.2536 10.2272 21.1364 10.2272Z" stroke="black" stroke-width="2"/>
<path d="M21.1364 26.5909C23.0192 26.5909 24.5455 25.0646 24.5455 23.1818C24.5455 21.299 23.0192 19.7727 21.1364 19.7727C19.2536 19.7727 17.7273 21.299 17.7273 23.1818C17.7273 25.0646 19.2536 26.5909 21.1364 26.5909Z" stroke="black" stroke-width="2"/>
<path d="M8.1818 18.409C10.0646 18.409 11.5909 16.8827 11.5909 14.9999C11.5909 13.1171 10.0646 11.5908 8.1818 11.5908C6.29901 11.5908 4.77271 13.1171 4.77271 14.9999C4.77271 16.8827 6.29901 18.409 8.1818 18.409Z" stroke="black" stroke-width="2"/>
<path d="M18.927 8.16174L10.5137 13.5813" stroke="black" stroke-width="2"/>
<path d="M10.2761 16.4219L18.9689 21.8496" stroke="black" stroke-width="2"/>
</svg>
