<svg width="30" height="30" viewBox="0 0 30 30" fill="none" xmlns="http://www.w3.org/2000/svg">
<path fill-rule="evenodd" clip-rule="evenodd" d="M15.0002 2.84247C15.6905 2.84247 16.2501 3.42372 16.2501 4.14072V20.164C16.2501 20.881 15.6905 21.4622 15.0002 21.4622C14.3098 21.4622 13.7502 20.881 13.7502 20.164V4.14072C13.7502 3.42372 14.3098 2.84247 15.0002 2.84247Z" fill="black"/>
<path fill-rule="evenodd" clip-rule="evenodd" d="M14.1163 3.22263C14.6044 2.71563 15.3958 2.71563 15.884 3.22263L22.6334 10.2328C23.1216 10.7398 23.1216 11.5618 22.6334 12.0688C22.1453 12.5758 21.3539 12.5758 20.8657 12.0688L14.1163 5.05862C13.6281 4.55163 13.6281 3.72962 14.1163 3.22263Z" fill="black"/>
<path fill-rule="evenodd" clip-rule="evenodd" d="M15.8841 3.22269C16.3722 3.72968 16.3722 4.55169 15.8841 5.05868L9.13466 12.0689C8.64652 12.5759 7.85509 12.5759 7.36695 12.0689C6.87881 11.5619 6.87881 10.7399 7.36695 10.2329L14.1164 3.22269C14.6045 2.71569 15.396 2.71569 15.8841 3.22269Z" fill="black"/>
<path fill-rule="evenodd" clip-rule="evenodd" d="M2.72729 16.9595C3.41765 16.9595 3.97729 17.5407 3.97729 18.2577V23.6393C3.97729 24.6431 4.7608 25.4568 5.72729 25.4568H24.2728C25.2392 25.4568 26.0227 24.6431 26.0227 23.6393V18.2577C26.0227 17.5407 26.5824 16.9595 27.2727 16.9595C27.9631 16.9595 28.5227 17.5407 28.5227 18.2577V23.6393C28.5227 26.0771 26.62 28.0532 24.2728 28.0532H5.72729C3.38009 28.0532 1.47729 26.0771 1.47729 23.6393V18.2577C1.47729 17.5407 2.03694 16.9595 2.72729 16.9595Z" fill="black"/>
</svg>
