<svg width="30" height="30" viewBox="0 0 30 30" fill="none" xmlns="http://www.w3.org/2000/svg">
<path fill-rule="evenodd" clip-rule="evenodd" d="M17 7C17 8.10457 16.1046 9 15 9C13.8954 9 13 8.10457 13 7C13 5.89543 13.8954 5 15 5C16.1046 5 17 5.89543 17 7ZM17 15C17 16.1046 16.1046 17 15 17C13.8954 17 13 16.1046 13 15C13 13.8954 13.8954 13 15 13C16.1046 13 17 13.8954 17 15ZM15 25C16.1046 25 17 24.1046 17 23C17 21.8954 16.1046 21 15 21C13.8954 21 13 21.8954 13 23C13 24.1046 13.8954 25 15 25Z" fill="black"/>
</svg>
