<svg width="30" height="30" viewBox="0 0 30 30" fill="none" xmlns="http://www.w3.org/2000/svg">
<path fill-rule="evenodd" clip-rule="evenodd" d="M23 17C21.8954 17 21 16.1046 21 15C21 13.8954 21.8954 13 23 13C24.1046 13 25 13.8954 25 15C25 16.1046 24.1046 17 23 17ZM15 17C13.8954 17 13 16.1046 13 15C13 13.8954 13.8954 13 15 13C16.1046 13 17 13.8954 17 15C17 16.1046 16.1046 17 15 17ZM5 15C5 16.1046 5.89543 17 7 17C8.10457 17 9 16.1046 9 15C9 13.8954 8.10457 13 7 13C5.89543 13 5 13.8954 5 15Z" fill="black"/>
</svg>
