<svg width="30" height="30" viewBox="0 0 30 30" fill="none" xmlns="http://www.w3.org/2000/svg">
<path fill-rule="evenodd" clip-rule="evenodd" d="M2.4375 15C2.4375 8.06272 8.06272 2.4375 15 2.4375C21.9386 2.4375 27.5625 8.06279 27.5625 15C27.5625 21.9372 21.9386 27.5625 15 27.5625C8.06272 27.5625 2.4375 21.9373 2.4375 15Z" fill="#DDDDDD"/>
<path fill-rule="evenodd" clip-rule="evenodd" d="M15.0061 20.7449C14.4538 20.7449 14.0061 20.2972 14.0061 19.7449L14.0061 14.2211C14.0061 13.6688 14.4538 13.2211 15.0061 13.2211C15.5584 13.2211 16.0061 13.6688 16.0061 14.2211L16.0061 19.7449C16.0061 20.2972 15.5584 20.7449 15.0061 20.7449Z" fill="white"/>
<path fill-rule="evenodd" clip-rule="evenodd" d="M16.0063 10.2551C16.0063 10.8074 15.5586 11.2551 15.0063 11.2551L14.9938 11.2551C14.4416 11.2551 13.9938 10.8074 13.9938 10.2551C13.9938 9.70284 14.4416 9.25513 14.9938 9.25513L15.0063 9.25513C15.5586 9.25513 16.0063 9.70284 16.0063 10.2551Z" fill="white"/>
</svg>
