<svg width="22" height="22" viewBox="0 0 22 22" fill="none" xmlns="http://www.w3.org/2000/svg">
<path fill-rule="evenodd" clip-rule="evenodd" d="M10.3292 16.7968C13.907 16.7968 16.8074 13.8985 16.8074 10.3232C16.8074 6.74793 13.907 3.8496 10.3292 3.8496C6.75133 3.8496 3.85092 6.74793 3.85092 10.3232C3.85092 13.8985 6.75133 16.7968 10.3292 16.7968ZM10.3292 18.6464C14.9292 18.6464 18.6583 14.92 18.6583 10.3232C18.6583 5.72642 14.9292 2 10.3292 2C5.72909 2 2 5.72642 2 10.3232C2 14.92 5.72909 18.6464 10.3292 18.6464Z" fill="black"/>
<path d="M15.1674 15.1711C15.5288 14.81 16.089 14.7843 16.4187 15.1137L19.4031 18.0959C19.7327 18.4254 19.707 18.9852 19.3455 19.3463C18.9841 19.7075 18.4239 19.7332 18.0943 19.4038L15.1099 16.4215C14.7802 16.0921 14.806 15.5323 15.1674 15.1711Z" fill="black"/>
<path fill-rule="evenodd" clip-rule="evenodd" d="M6.6272 10.3364C6.6272 9.82567 7.04154 9.41162 7.55266 9.41162H13.1054C13.6165 9.41162 14.0309 9.82567 14.0309 10.3364C14.0309 10.8472 13.6165 11.2612 13.1054 11.2612H7.55266C7.04154 11.2612 6.6272 10.8472 6.6272 10.3364Z" fill="black"/>
</svg>
