<svg width="30" height="30" viewBox="0 0 30 30" fill="none" xmlns="http://www.w3.org/2000/svg">
<path fill-rule="evenodd" clip-rule="evenodd" d="M22.5401 5.08606C22.1992 4.74518 21.6465 4.74518 21.3056 5.08606L7.72215 18.6696C7.62281 18.7689 7.54891 18.8907 7.50674 19.0247L6.16537 23.2873C6.05944 23.6239 6.37607 23.9406 6.71269 23.8346L10.9753 22.4933C11.1093 22.4511 11.2311 22.3772 11.3305 22.2779L24.914 8.69437C25.2548 8.35349 25.2548 7.80082 24.914 7.45995L22.5401 5.08606ZM20.0712 3.85163C21.0938 2.829 22.7519 2.82901 23.7745 3.85163L26.1484 6.22553C27.171 7.24816 27.171 8.90616 26.1484 9.92879L12.5649 23.5123C12.2669 23.8103 11.9013 24.032 11.4993 24.1585L7.23671 25.4999C5.55362 26.0295 3.9705 24.4464 4.50014 22.7633L5.84151 18.5007C5.96802 18.0987 6.1897 17.7331 6.48772 17.4351L20.0712 3.85163Z" fill="black" stroke="black" stroke-width="0.4"/>
<path fill-rule="evenodd" clip-rule="evenodd" d="M21.6676 13.1404L16.8249 8.29766L18.0593 7.06323L22.9021 11.906L21.6676 13.1404Z" fill="black" stroke="black" stroke-width="0.4"/>
</svg>
