<svg width="16" height="16" viewBox="0 0 16 16" fill="none" xmlns="http://www.w3.org/2000/svg">
<g clip-path="url(#clip0_1000_2838)">
<path fill-rule="evenodd" clip-rule="evenodd" d="M8 2.15527C11.0498 2.15527 13.9949 4.07035 15.6983 7.67981C15.7939 7.88248 15.7939 8.11731 15.6983 8.31998C13.9949 11.9294 11.0498 13.8445 8 13.8445C4.95024 13.8445 2.00508 11.9294 0.301714 8.31998C0.206069 8.11731 0.206069 7.88248 0.301714 7.67981C2.00508 4.07035 4.95024 2.15527 8 2.15527ZM1.81545 7.99989C3.3292 10.9626 5.71339 12.3445 8 12.3445C10.2866 12.3445 12.6708 10.9626 14.1845 7.99989C12.6708 5.03719 10.2866 3.65527 8 3.65527C5.71339 3.65527 3.3292 5.03719 1.81545 7.99989Z" fill="black"/>
<path fill-rule="evenodd" clip-rule="evenodd" d="M8 6.2478C7.03229 6.2478 6.2478 7.03229 6.2478 8C6.2478 8.96771 7.03229 9.7522 8 9.7522C8.96771 9.7522 9.7522 8.96771 9.7522 8C9.7522 7.03229 8.96771 6.2478 8 6.2478ZM4.7478 8C4.7478 6.20386 6.20386 4.7478 8 4.7478C9.79614 4.7478 11.2522 6.20386 11.2522 8C11.2522 9.79614 9.79614 11.2522 8 11.2522C6.20386 11.2522 4.7478 9.79614 4.7478 8Z" fill="black"/>
</g>
<defs>
<clipPath id="clip0_1000_2838">
<rect width="16" height="16" fill="white"/>
</clipPath>
</defs>
</svg>
