<svg width="22" height="22" viewBox="0 0 22 22" fill="none" xmlns="http://www.w3.org/2000/svg">
<path fill-rule="evenodd" clip-rule="evenodd" d="M11.0001 3.25414C6.72277 3.25414 3.25426 6.72265 3.25426 11C3.25426 15.2773 6.72277 18.7458 11.0001 18.7458C15.2783 18.7458 18.7459 15.2774 18.7459 11C18.7459 6.7226 15.2783 3.25414 11.0001 3.25414ZM1.7876 11C1.7876 5.91263 5.91276 1.78748 11.0001 1.78748C16.0884 1.78748 20.2126 5.91268 20.2126 11C20.2126 16.0873 16.0884 20.2125 11.0001 20.2125C5.91276 20.2125 1.7876 16.0873 1.7876 11Z" fill="#D73838"/>
<path fill-rule="evenodd" clip-rule="evenodd" d="M10.9955 6.78687C11.4005 6.78687 11.7289 7.11519 11.7289 7.5202V11.5709C11.7289 11.976 11.4005 12.3043 10.9955 12.3043C10.5905 12.3043 10.2622 11.976 10.2622 11.5709V7.5202C10.2622 7.11519 10.5905 6.78687 10.9955 6.78687Z" fill="#D73838"/>
<path fill-rule="evenodd" clip-rule="evenodd" d="M10.2622 14.4797C10.2622 14.0747 10.5905 13.7463 10.9955 13.7463H11.0047C11.4097 13.7463 11.738 14.0747 11.738 14.4797C11.738 14.8847 11.4097 15.213 11.0047 15.213H10.9955C10.5905 15.213 10.2622 14.8847 10.2622 14.4797Z" fill="#D73838"/>
</svg>
