<svg width="30" height="30" viewBox="0 0 30 30" fill="none" xmlns="http://www.w3.org/2000/svg">
<path fill-rule="evenodd" clip-rule="evenodd" d="M11.0184 4.79289C11.4089 5.18342 11.4089 5.81658 11.0184 6.20711L6.41448 10.811L11.0181 15.4112C11.4088 15.8016 11.4091 16.4347 11.0187 16.8254C10.6283 17.2161 9.99513 17.2163 9.60446 16.8259L4.29316 11.5187C4.10551 11.3312 4.00005 11.0768 4 10.8115C3.99995 10.5462 4.10531 10.2918 4.29289 10.1042L9.60419 4.79289C9.99472 4.40237 10.6279 4.40237 11.0184 4.79289Z" fill="black"/>
<path fill-rule="evenodd" clip-rule="evenodd" d="M5 10.5C5 9.94772 5.44772 9.5 6 9.5H18.0899C22.4711 9.5 26 13.0935 26 17.5C26 21.9065 22.4711 25.5 18.0899 25.5H7.84908C7.2968 25.5 6.84908 25.0523 6.84908 24.5C6.84908 23.9477 7.2968 23.5 7.84908 23.5H18.0899C21.3423 23.5 24 20.8264 24 17.5C24 14.1736 21.3423 11.5 18.0899 11.5H6C5.44772 11.5 5 11.0523 5 10.5Z" fill="black"/>
<path d="M10.3113 16.1186L5 10.8113L10.3113 5.5" stroke="black" stroke-width="2" stroke-linecap="round" stroke-linejoin="round"/>
<path d="M6 10.5H18.0899C21.9067 10.5 25 13.6335 25 17.5C25 21.3665 21.9067 24.5 18.0899 24.5H7.84908" stroke="black" stroke-width="2" stroke-linecap="round" stroke-linejoin="round"/>
</svg>
