<svg width="22" height="22" viewBox="0 0 22 22" fill="none" xmlns="http://www.w3.org/2000/svg">
<path fill-rule="evenodd" clip-rule="evenodd" d="M16.0599 5.57336H5.7932C4.98318 5.57336 4.32653 6.23 4.32653 7.04002V16.5C4.32653 17.31 4.98318 17.9667 5.7932 17.9667H16.0599C16.8699 17.9667 17.5265 17.31 17.5265 16.5V7.04002C17.5265 6.23001 16.8699 5.57336 16.0599 5.57336ZM5.7932 4.10669C4.17316 4.10669 2.85986 5.41998 2.85986 7.04002V16.5C2.85986 18.1201 4.17316 19.4334 5.7932 19.4334H16.0599C17.6799 19.4334 18.9932 18.1201 18.9932 16.5V7.04002C18.9932 5.41999 17.6799 4.10669 16.0599 4.10669H5.7932Z" fill="black"/>
<path fill-rule="evenodd" clip-rule="evenodd" d="M2.93311 8.94671C2.93311 8.5417 3.26143 8.21338 3.66644 8.21338H18.1864C18.5914 8.21338 18.9198 8.5417 18.9198 8.94671C18.9198 9.35172 18.5914 9.68005 18.1864 9.68005H3.66644C3.26143 9.68005 2.93311 9.35172 2.93311 8.94671Z" fill="black"/>
<path fill-rule="evenodd" clip-rule="evenodd" d="M7.69989 2.56665C8.1049 2.56665 8.43322 2.89497 8.43322 3.29998V4.76665C8.43322 5.17166 8.1049 5.49998 7.69989 5.49998C7.29488 5.49998 6.96655 5.17166 6.96655 4.76665V3.29998C6.96655 2.89497 7.29488 2.56665 7.69989 2.56665Z" fill="black"/>
<path fill-rule="evenodd" clip-rule="evenodd" d="M14.1533 2.56665C14.5583 2.56665 14.8866 2.89497 14.8866 3.29998V4.76665C14.8866 5.17166 14.5583 5.49998 14.1533 5.49998C13.7482 5.49998 13.4199 5.17166 13.4199 4.76665V3.29998C13.4199 2.89497 13.7482 2.56665 14.1533 2.56665Z" fill="black"/>
</svg>
